# xmcd
#
# Track frame offsets:
#	150
#	9169
#	26603
#	36750
#	47393
#	60093
#	72435
#	85955
#	98089
#	110363
#
# Disc length: 1702 seconds
# Revision: 0
# Processed by: cddbd v1.5.2PL0 Copyright (c) Steve Scherf et al.
# Submitted via: dBpowerAMP V12.0
#
DISCID=6b06a40a
DTITLE=Various Artist - That's Country (Drinkinsingin')
DYEAR=2004
DGENRE=Country
TTITLE0=Roger Miller - Chug-a-Lug
TTITLE1=Ferlin Husky - Sunday Morning Comin' Down
TTITLE2=Waylon Jennings - White Lightning
TTITLE3=Johnny Bush - Whiskey River
TTITLE4=T.G. Sheppard - Devil in the Bottle
TTITLE5=Johnny Russell - Rednecks, White Socks, and Blue Ribbon Beer
TTITLE6=Mickey Gilley - Don't All the Girls Get Prettier at Closin' Time
TTITLE7=Freddy Fender - Wasted Days and Wasted Nights
TTITLE8=Moe Bandy - Barstool Mountain
TTITLE9=Merle Haggard - I Think I'll Just Stay Here and Drink
EXTD=
EXTT0=
EXTT1=
EXTT2=
EXTT3=
EXTT4=
EXTT5=
EXTT6=
EXTT7=
EXTT8=
EXTT9=
PLAYORDER=
